PathFileType	4	(X/Y/Z)
DataRate	CameraRate	NumFrames	NumMarkers	Units	OrigDataRate	OrigDataStartFrame	OrigNumFrames	
	120.0	120.0	5	39	mm	120.0	126	201
Frame#	Time	midhip	hip_r	hip_l	knee_r	knee_l	ankle_r	ankle_l	midasis	asis_r	asis_l	psis_r	psis_l	epicondLat_r	epicondLat_l	epicondMed_r	epicondMed_l	malleolusLat_r	malleolusLat_l	malleolusMedv_r	malleolusMedv_l	heel_r	heel_l	sternalnotch	xyphoidprocess	neck	subclavicle_r	subclavicle_l	toe_r	toe_l	thighwand_r	thighwand_l	upperleg1_r	upperleg1_l	upperleg2_r	upperleg2_l	shankwand_r	shankwand_l	lowerleg1_r	lowerleg1_l
	X1	Y1	Z1	X2	Y2	Z2	X3	Y3	Z3	X4	Y4	Z4	X5	Y5	Z5	X6	Y6	Z6	X7	Y7	Z7	X8	Y8	Z8	X9	Y9	Z9	X10	Y10	Z10	X11	Y11	Z11	X12	Y12	Z12	X13	Y13	Z13	X14	Y14	Z14	X15	Y15	Z15	X16	Y16	Z16	X17	Y17	Z17	X18	Y18	Z18	X19	Y19	Z19	X20	Y20	Z20	X21	Y21	Z21	X22	Y22	Z22	X23	Y23	Z23	X24	Y24	Z24	X25	Y25	Z25	X26	Y26	Z26	X27	Y27	Z27	X28	Y28	Z28	X29	Y29	Z29	X30	Y30	Z30	X31	Y31	Z31	X32	Y32	Z32	X33	Y33	Z33	X34	Y34	Z34	X35	Y35	Z35	X36	Y36	Z36	X37	Y37	Z37	X38	Y38	Z38	X39	Y39	Z39

	126	1.05000	748.217	784.868	-244.004	728.286	790.393	-164.525	726.380	790.672	-320.142	723.635	419.454	-154.879	733.689	429.441	-333.237	716.284	58.966	-117.266	726.770	56.820	-368.597	862.668	851.683	-243.881	864.179	851.462	-120.498	861.156	851.905	-367.265	624.812	944.355	-208.114	620.466	942.898	-263.259	730.059	421.277	-81.683	726.488	431.946	-406.340	709.800	423.441	-224.659	728.944	410.037	-258.628	705.883	63.238	-78.358	702.599	60.452	-402.135	722.245	66.960	-153.247	723.816	72.842	-326.048	653.926	49.637	-124.758	672.350	47.373	-334.361	786.662	1287.889	-265.524	844.010	1218.408	-265.028	668.741	1352.006	-247.175	803.851	1294.722	-212.662	802.571	1294.505	-294.585	824.526	43.687	-104.768	822.001	48.152	-382.834	890.688	572.164	-91.066	909.854	604.167	-348.211	851.166	594.826	-111.222	862.861	620.705	-351.959	823.643	522.681	-115.264	844.285	549.332	-352.383	800.667	208.534	-103.740	686.081	175.346	-460.073	755.119	214.589	-117.063	692.829	184.372	-412.821
	127	1.05833	748.326	784.869	-243.941	728.462	790.383	-164.447	726.435	790.662	-320.063	723.530	419.500	-154.897	733.693	429.436	-333.256	716.264	58.940	-117.241	726.768	56.810	-368.566	862.778	851.681	-243.908	864.385	851.460	-120.554	861.171	851.902	-367.263	624.901	944.335	-208.026	620.532	942.913	-263.194	729.944	421.299	-81.699	726.501	431.962	-406.360	708.698	425.462	-225.193	728.860	410.172	-258.346	705.857	63.213	-78.334	702.602	60.437	-402.108	722.213	66.946	-153.230	723.734	72.762	-325.985	653.932	49.638	-124.758	672.347	47.364	-334.373	786.569	1287.775	-265.644	843.831	1218.224	-265.113	668.810	1351.894	-247.169	803.502	1294.396	-212.618	802.631	1294.477	-294.655	824.597	43.686	-104.829	821.988	48.123	-382.754	890.698	572.146	-91.047	909.950	604.127	-348.167	851.860	594.769	-110.659	862.767	620.684	-352.009	823.589	522.681	-115.236	844.229	549.327	-352.295	800.632	208.458	-103.733	686.096	175.350	-460.090	755.119	214.589	-117.063	692.812	184.438	-412.640
	128	1.06667	748.430	784.879	-243.884	728.623	790.387	-164.377	726.496	790.655	-319.991	723.470	419.532	-154.920	733.699	429.428	-333.282	716.249	58.934	-117.210	726.762	56.804	-368.547	862.884	851.687	-243.929	864.570	851.475	-120.589	861.198	851.900	-367.269	624.970	944.325	-207.949	620.610	942.932	-263.084	729.861	421.310	-81.720	726.518	431.975	-406.386	708.402	426.579	-225.692	728.798	409.958	-258.673	705.830	63.211	-78.308	702.602	60.429	-402.093	722.153	66.948	-153.213	723.560	72.598	-325.893	653.947	49.640	-124.752	672.345	47.352	-334.386	786.739	1287.726	-265.591	844.015	1218.187	-264.959	668.895	1351.833	-247.093	803.570	1294.344	-212.435	802.854	1294.436	-294.667	824.649	43.688	-104.874	821.968	48.102	-382.729	890.704	572.149	-91.041	910.026	604.103	-348.164	852.271	594.736	-110.309	862.540	620.639	-352.142	823.722	522.734	-115.279	844.138	549.288	-352.434	800.615	208.397	-103.744	686.123	175.363	-460.123	755.119	214.589	-117.063	692.767	184.583	-412.285
	129	1.07500	748.519	784.896	-243.824	728.761	790.407	-164.308	726.550	790.649	-319.921	723.424	419.568	-154.944	733.680	429.413	-333.299	716.245	58.950	-117.189	726.758	56.815	-368.530	862.980	851.692	-243.942	864.733	851.501	-120.609	861.228	851.884	-367.275	625.035	944.333	-207.852	620.688	942.966	-262.964	729.794	421.325	-81.742	726.521	431.979	-406.405	708.573	426.562	-225.781	728.632	409.736	-259.212	705.815	63.230	-78.290	702.608	60.437	-402.085	722.077	66.967	-153.207	723.363	72.539	-325.816	653.971	49.644	-124.739	672.345	47.343	-334.398	787.067	1287.705	-265.386	844.397	1218.209	-264.784	668.962	1351.825	-247.045	803.940	1294.351	-212.211	803.152	1294.418	-294.515	824.683	43.693	-104.903	821.962	48.107	-382.762	890.708	572.162	-91.043	910.056	604.091	-348.194	852.253	594.643	-110.218	862.557	620.606	-352.137	823.873	522.773	-115.283	844.072	549.158	-352.611	800.615	208.359	-103.777	686.153	175.385	-460.138	755.119	214.589	-117.063	692.685	184.679	-412.104
	130	1.08333	748.586	784.920	-243.764	728.865	790.446	-164.242	726.591	790.649	-319.854	723.390	419.629	-154.973	733.627	429.387	-333.307	716.267	58.978	-117.176	726.758	56.843	-368.508	863.060	851.695	-243.946	864.862	851.533	-120.621	861.257	851.856	-367.270	625.117	944.365	-207.722	620.762	943.016	-262.845	729.744	421.365	-81.769	726.510	431.971	-406.416	708.481	426.573	-225.684	728.408	409.909	-259.135	705.829	63.261	-78.280	702.626	60.460	-402.077	722.016	66.995	-153.208	723.106	72.613	-325.743	653.996	49.650	-124.721	672.348	47.346	-334.397	787.243	1287.673	-265.322	844.542	1218.152	-264.781	669.167	1351.839	-246.958	804.140	1294.282	-212.149	803.319	1294.395	-294.454	824.692	43.696	-104.905	821.967	48.142	-382.828	890.714	572.176	-91.043	910.039	604.086	-348.235	852.208	594.573	-110.154	862.739	620.577	-352.061	823.889	522.787	-115.239	844.039	549.081	-352.582	800.615	208.338	-103.821	686.171	175.424	-460.114	755.119	214.589	-117.063	692.517	184.636	-412.183
